<?xml version="1.0" encoding="utf-8"?>
<!-- Generator: Adobe Illustrator 19.2.1, SVG Export Plug-In . SVG Version: 6.00 Build 0)  -->
<svg version="1.1" id="layer" xmlns="http://www.w3.org/2000/svg" xmlns:xlink="http://www.w3.org/1999/xlink" x="0px" y="0px"
	 viewBox="0 0 652 652" style="enable-background:new 0 0 652 652;" xml:space="preserve">
<style type="text/css">
	.st0{fill:#DC1928;}
</style>
<g>
	<path class="st0" d="M20.6,320.9c0,27.6,17.1,51.1,41.2,60.3V260.6C37.7,269.8,20.6,293.3,20.6,320.9L20.6,320.9z M84.4,256.4
		c-1.8,0-3.5,0.1-5.2,0.2v4.5h0.3c24.3,0.2,43.8,18.9,43.7,41.8c-0.2,22.8-19.8,41.2-44,41.2v41c1.7,0.2,3.5,0.2,5.2,0.2
		c35.2,0,63.8-28.9,63.8-64.5C148.1,285.3,119.5,256.4,84.4,256.4L84.4,256.4z M206.7,335.9h-20.5l-3.6,10.7h-9.1l17.6-51.6H202
		l17.4,51.6h-9.1L206.7,335.9z M204.1,328.1l-7.7-22.9l-7.7,22.9H204.1z M246.4,309h8.7v37.6h-8.7v-4.4h-0.3
		c-2.4,3.3-5.6,5.3-10.6,5.3c-7.5,0-12.4-5.5-12.4-13.9V309h8.7v23.7c0,4.2,2,7.3,6.8,7.3c5,0,7.7-3.5,7.7-7.9V309z M269.9,335.8
		c0.6,3.3,2.8,5.4,7.5,5.4c4.3,0,6.8-1.8,6.8-4.9c0-2.5-0.9-4.1-5-4.6l-6.7-0.8c-7.6-0.9-10.8-4.5-10.8-10.4c0-7.2,6-12.3,15.4-12.3
		c9.8,0,14.5,5.7,14.9,11.4h-8.6c-0.4-3-2.6-4.9-6.5-4.9c-4,0-6.6,1.9-6.6,4.8c0,2.4,1.3,3.8,5.6,4.3l6.6,0.8
		c7.3,0.9,10.2,4.3,10.2,10.5c0,7.8-6.7,12.6-15.4,12.6c-10.1,0-15.5-5-16.2-11.8H269.9z M302.3,315.6h-7.1V309h7.2v-14h8.7v14h8.5
		v6.5h-8.5v19.3c0,3.4,1.7,4.8,5,4.8h3.6v7h-5.1c-8.3,0-12.3-3.8-12.3-11.2V315.6z M335.9,346.6h-8.8V309h8.8v5.7h0.3
		c1.8-4.1,4.8-5.7,8-5.7h4.2v7.8h-3.9c-5.8,0-8.6,2.8-8.6,9.7V346.6z M362.4,347.6c-7.1,0-11.9-4.2-11.9-11.3
		c0-7.4,5.6-10.2,11.7-11l7.9-1c3-0.3,3.7-1.7,3.7-3.8c0-3.2-2.1-5.6-6.5-5.6c-4.4,0-6.8,2.5-7.2,6h-8.9c0.2-6.4,5.5-12.6,15.9-12.6
		c9.7,0,15.5,5.8,15.5,14.4v17.7c0,2.3,0.3,4.7,0.8,6.5h-9.1c-0.2-1.6-0.4-3.2-0.4-4.9h-0.2C371.9,345,367.8,347.6,362.4,347.6
		L362.4,347.6z M369.2,329.4l-3.9,0.9c-3.7,0.8-6,2.3-6,5.7c0,3.4,2,5.2,5.9,5.2c4.5,0,8.7-3,8.7-7.9v-5.9
		C372.9,328.4,371.1,328.9,369.2,329.4L369.2,329.4z M390.4,336.5v-44h8.7v43.4c0,2.3,1,3.8,3.6,3.8h2.9v6.9H401
		C394.2,346.6,390.4,342.7,390.4,336.5L390.4,336.5z M421.2,297.3c0,3.1-2.4,5.4-5.4,5.4c-3,0-5.4-2.4-5.4-5.4c0-3,2.4-5.4,5.4-5.4
		C418.9,291.9,421.2,294.2,421.2,297.3L421.2,297.3z M420.2,309v37.6h-8.8V309H420.2z M438.3,347.6c-7.1,0-11.9-4.2-11.9-11.3
		c0-7.4,5.6-10.2,11.7-11l7.9-1c3-0.3,3.7-1.7,3.7-3.8c0-3.2-2.1-5.6-6.5-5.6c-4.5,0-6.8,2.5-7.2,6h-8.9c0.2-6.4,5.5-12.6,15.9-12.6
		c9.8,0,15.5,5.8,15.5,14.4v17.7c0,2.3,0.3,4.7,0.8,6.5h-9.1c-0.2-1.6-0.4-3.2-0.3-4.9h-0.2C447.7,345,443.6,347.6,438.3,347.6
		L438.3,347.6z M445,329.4l-3.9,0.9c-3.7,0.8-6,2.3-6,5.7c0,3.4,2,5.2,5.9,5.2c4.5,0,8.7-3,8.7-7.9v-5.9
		C448.7,328.4,447,328.9,445,329.4L445,329.4z M502.5,295.1c11,0,17.9,6.3,17.9,16.7c0,10.6-7,16.8-17.9,16.8h-12.9v18h-9.3v-51.6
		H502.5z M511,311.8c0-6.4-3.9-9.1-10.3-9.1h-11.1V321h11.1C507.2,321,511,318.5,511,311.8L511,311.8z M540.2,308.2
		c10.8,0,17.9,7.8,17.9,19.7c0,12-7.2,19.7-17.9,19.7c-10.8,0-18-7.7-18-19.7C522.2,315.9,529.4,308.2,540.2,308.2L540.2,308.2z
		 M549.2,326.4c0-7-3.5-11.2-9.1-11.2c-5.6,0-9.1,4.1-9.1,11.2v3.1c0,7,3.4,11.1,9.1,11.1c5.6,0,9.1-4.1,9.1-11.1V326.4z
		 M570.8,335.8c0.6,3.3,2.8,5.4,7.5,5.4c4.3,0,6.7-1.8,6.7-4.9c0-2.5-0.9-4.1-5-4.6l-6.7-0.8c-7.6-0.9-10.8-4.5-10.8-10.4
		c0-7.2,6-12.3,15.4-12.3c9.8,0,14.5,5.7,15,11.4h-8.6c-0.4-3-2.6-4.9-6.5-4.9c-4,0-6.6,1.9-6.6,4.8c0,2.4,1.3,3.8,5.6,4.3l6.6,0.8
		c7.3,0.9,10.2,4.3,10.2,10.5c0,7.8-6.7,12.6-15.4,12.6c-10.1,0-15.5-5-16.2-11.8H570.8z M603.2,315.6h-7.1V309h7.2v-14h8.7v14h8.6
		v6.5H612v19.3c0,3.4,1.7,4.8,5,4.8h3.6v7h-5.1c-8.3,0-12.3-3.8-12.3-11.2V315.6z M603.2,315.6"/>
</g>
</svg>
