<?xml version="1.0" encoding="UTF-8"?><svg id="Layer_1" xmlns="http://www.w3.org/2000/svg" xmlns:xlink="http://www.w3.org/1999/xlink" viewBox="0 0 56 56"><defs><style>.cls-1{fill:#fff;}.cls-2{fill:url(#Degradado_sin_nombre_3);}</style><linearGradient id="Degradado_sin_nombre_3" x1="47.44" y1="8.56" x2="8.56" y2="47.44" gradientTransform="matrix(1, 0, 0, 1, 0, 0)" gradientUnits="userSpaceOnUse"><stop offset="0" stop-color="#ffe185"/><stop offset=".21" stop-color="#ffbb36"/><stop offset=".38" stop-color="#ff5176"/><stop offset=".52" stop-color="#f63395"/><stop offset=".74" stop-color="#a436d2"/><stop offset="1" stop-color="#5f4eed"/></linearGradient></defs><circle class="cls-2" cx="28" cy="28" r="27.49"/><g><path class="cls-1" d="M36.53,17.6c-1.04,0-1.89,.85-1.89,1.89s.85,1.89,1.89,1.89,1.89-.85,1.89-1.89-.85-1.89-1.89-1.89Z"/><path class="cls-1" d="M28.13,20.02c-4.38,0-7.94,3.56-7.94,7.94s3.56,7.94,7.94,7.94,7.94-3.56,7.94-7.94-3.56-7.94-7.94-7.94Zm0,13.02c-2.8,0-5.08-2.28-5.08-5.08s2.28-5.08,5.08-5.08,5.08,2.28,5.08,5.08-2.28,5.08-5.08,5.08Z"/><path class="cls-1" d="M34.43,44.08h-12.87c-5.34,0-9.68-4.34-9.68-9.68v-12.87c0-5.34,4.34-9.68,9.68-9.68h12.87c5.34,0,9.68,4.34,9.68,9.68v12.87c0,5.34-4.34,9.68-9.68,9.68ZM21.57,14.88c-3.67,0-6.65,2.98-6.65,6.65v12.87c0,3.67,2.98,6.65,6.65,6.65h12.87c3.67,0,6.65-2.98,6.65-6.65v-12.87c0-3.67-2.98-6.65-6.65-6.65h-12.87Z"/></g></svg>