<?xml version="1.0" encoding="UTF-8"?><svg id="Layer_1" xmlns="http://www.w3.org/2000/svg" xmlns:xlink="http://www.w3.org/1999/xlink" viewBox="0 0 56 56"><defs><style>.cls-1{fill:url(#linear-gradient);}.cls-2{fill:#fff;}</style><linearGradient id="linear-gradient" x1="8.56" y1="8.56" x2="47.44" y2="47.44" gradientTransform="matrix(1, 0, 0, 1, 0, 0)" gradientUnits="userSpaceOnUse"><stop offset="0" stop-color="#1677f1"/><stop offset=".18" stop-color="#176ee9"/><stop offset=".46" stop-color="#1d55d3"/><stop offset=".82" stop-color="#252eb0"/><stop offset="1" stop-color="#2b189c"/></linearGradient></defs><path class="cls-1" d="M55.49,28C55.49,12.82,43.18,.51,28,.51S.51,12.82,.51,28c0,13.72,10.05,25.09,23.19,27.15v-19.21h-6.98v-7.95h6.98v-6.06c0-6.89,4.1-10.69,10.38-10.69,3.01,0,6.15,.54,6.15,.54v6.76h-3.47c-3.41,0-4.48,2.12-4.48,4.29v5.16h7.62l-1.22,7.95h-6.4v19.21c13.14-2.06,23.19-13.43,23.19-27.15Z"/><path class="cls-2" d="M38.7,35.95l1.22-7.95h-7.62v-5.16c0-2.17,1.06-4.29,4.48-4.29h3.47v-6.76s-3.15-.54-6.15-.54c-6.28,0-10.38,3.81-10.38,10.69v6.06h-6.98v7.95h6.98v19.21c1.4,.22,2.83,.33,4.29,.33s2.9-.11,4.29-.33v-19.21h6.4Z"/></svg>